PathFileType	4	(X/Y/Z)	C:\Users\dbl\Desktop\LZH\BX\Trimmed_bx_n_0_1801.trc
DataRate	CameraRate	NumFrames	NumMarkers	Units	OrigDataRate	OrigDataStartFrame	OrigNumFrames
50.00	50.00	       4	43	mm	50.00	250	       997
Frame#	Time	Top.Head			R.Acromium			L.Acromium			Sternum			R.ASIS			L.ASIS			V.Sacral			R.Thigh.Upper			R.Thigh.Front			R.Thigh.Rear			R.Knee.Lat			R.Knee.Med			R.Shank.Upper			R.Shank.Front			R.Shank.Rear			R.Ankle.Lat			R.Midfoot.Lat			R.Toe.Lat			R.Toe.Tip			R.Toe.Med			R.Ankle.Med			R.Midfoot.Sup			R.Heel			L.Thigh.Upper			L.Thigh.Front			L.Thigh.Rear			L.Knee.Lat			L.Knee.Med			L.Shank.Upper			L.Shank.Front			L.Shank.Rear			L.Ankle.Lat			L.Midfoot.Lat			L.Toe.Lat			L.Toe.Tip			L.Toe.Med			L.Ankle.Med			L.Midfoot.Sup			L.Heel			origin1 front left			origin2 front right			origin 3 back right			origin 4 back leftt			
		X1	Y1	Z1	X2	Y2	Z2	X3	Y3	Z3	X4	Y4	Z4	X5	Y5	Z5	X6	Y6	Z6	X7	Y7	Z7	X8	Y8	Z8	X9	Y9	Z9	X10	Y10	Z10	X11	Y11	Z11	X12	Y12	Z12	X13	Y13	Z13	X14	Y14	Z14	X15	Y15	Z15	X16	Y16	Z16	X17	Y17	Z17	X18	Y18	Z18	X19	Y19	Z19	X20	Y20	Z20	X21	Y21	Z21	X22	Y22	Z22	X23	Y23	Z23	X24	Y24	Z24	X25	Y25	Z25	X26	Y26	Z26	X27	Y27	Z27	X28	Y28	Z28	X29	Y29	Z29	X30	Y30	Z30	X31	Y31	Z31	X32	Y32	Z32	X33	Y33	Z33	X34	Y34	Z34	X35	Y35	Z35	X36	Y36	Z36	X37	Y37	Z37	X38	Y38	Z38	X39	Y39	Z39	X40	Y40	Z40	X41	Y41	Z41	X42	Y42	Z42	X43	Y43	Z43	

250	4.980	-485.49365	234.88599	1747.51550	-510.09363	48.31922	1461.90747	-509.61151	403.70441	1458.04224	-485.80585	225.97400	1252.34009	-652.47491	112.46763	985.77313	-618.05676	334.41788	992.25793	-838.42920	244.62517	1026.02124	-690.60132	57.40454	810.67163	-588.43390	105.50655	823.61023	-634.21210	61.89346	709.02509	-604.14606	86.33820	588.52570	-559.68707	188.99614	558.12494	-627.32861	90.22263	525.90936	-544.90851	129.58066	509.45389	-645.96857	86.39789	479.08249	-692.81525	138.43156	212.40857	-626.41986	73.49371	164.04601	-579.41388	51.03751	160.68147	-504.27161	91.08527	161.11055	-542.53546	142.42752	165.32251	-639.32867	210.46645	215.08786	-603.94653	184.02864	170.19498	-728.33997	207.27585	171.06949	-662.60571	431.84360	838.74329	-566.51794	374.25266	827.61346	-626.93634	423.06476	726.44885	-576.37781	401.90665	599.09424	-554.98383	292.19061	561.87292	-586.05365	404.34225	551.31403	-524.55322	351.71091	529.33148	-648.94427	405.69260	495.87048	-672.35931	402.88577	215.55412	-587.58936	459.28134	165.99533	-551.32715	471.01569	161.02364	-489.87054	428.17758	167.83281	-525.83417	384.58160	175.83455	-636.68549	314.05020	202.07053	-592.10059	339.12982	166.49347	-731.25916	331.55115	162.93599	-443.82794	448.72510	146.78845	-450.25754	75.01463	143.29697	-806.45691	82.50748	140.95912	-800.00061	456.45856	144.63692	
251	5.000	-492.92053	234.07170	1755.87646	-514.19031	48.06451	1469.96484	-512.80725	403.54465	1465.85779	-485.90802	225.55849	1260.73340	-648.69458	111.84404	990.92163	-613.63989	333.97055	997.54272	-833.16022	244.28831	1030.45105	-689.15790	57.40065	813.78644	-587.03204	105.55004	824.88947	-635.13287	62.49288	710.95544	-607.43707	87.27912	589.99542	-563.23468	190.00966	559.07709	-630.81323	91.28282	526.85999	-548.30493	130.23921	510.49182	-649.11896	87.18674	479.87515	-693.22290	138.43457	212.04324	-626.52460	73.27767	163.94592	-579.45581	50.95584	160.59814	-504.31863	91.05434	161.20824	-542.59906	142.36400	165.46921	-639.61401	210.27975	215.30275	-604.09900	183.90819	170.33401	-728.45630	207.05963	171.00389	-659.99219	431.27045	841.82001	-564.94995	373.03888	828.76270	-627.06964	422.26694	728.88293	-579.42908	401.00937	600.35199	-558.84290	291.22507	562.68060	-589.52338	403.43350	552.29169	-528.28088	350.72247	530.38745	-652.14954	405.11877	496.29205	-672.68494	402.98624	215.59320	-587.55780	459.29333	166.03938	-551.27356	470.98218	161.00121	-489.89700	427.99628	167.77695	-525.83752	384.41724	175.80455	-637.07825	314.34467	202.13596	-592.16840	339.12607	166.52707	-731.35022	331.72363	162.88319	-443.79984	448.73181	146.80136	-450.23553	75.00274	143.28050	-806.43079	82.49108	140.99049	-800.00177	456.41125	144.65100	
252	5.020	-500.28110	233.34930	1763.66418	-518.35803	47.83581	1477.49829	-516.03625	403.37521	1473.10437	-486.09009	225.19791	1268.62708	-644.84357	111.07198	995.77454	-609.22766	333.34509	1002.43158	-828.32782	244.01199	1034.71143	-687.51965	57.37331	816.60211	-585.51300	105.60354	825.98468	-635.78290	63.12755	712.74500	-610.54724	88.19728	591.33636	-566.58038	191.01924	559.93030	-634.09174	92.27747	527.74921	-551.59088	131.00923	511.47015	-652.04645	88.04362	480.54553	-693.57990	138.40242	211.70003	-626.53094	73.15298	163.89865	-579.47229	50.88247	160.55809	-504.30551	91.10423	161.30429	-542.67206	142.28366	165.58897	-639.91272	210.14497	215.48288	-604.22797	183.83150	170.43446	-728.56476	206.91858	170.92508	-657.26709	430.62674	844.59338	-563.30420	371.73352	829.64294	-627.03198	421.32205	731.07513	-582.21484	400.13831	601.58295	-562.57043	290.18124	563.40582	-592.74957	402.46710	553.10321	-531.79102	349.59735	531.31165	-655.08765	404.49164	496.64554	-672.90674	402.99692	215.61703	-587.50916	459.28650	166.16270	-551.20160	470.89496	161.00772	-489.91348	427.81204	167.71591	-525.80688	384.19388	175.77444	-637.37744	314.54770	202.19084	-592.13953	339.07370	166.61502	-731.40961	331.90430	162.87096	-443.79605	448.67499	146.80911	-450.23178	75.02120	143.26884	-806.38574	82.48368	141.02954	-800.00226	456.36633	144.67459	
253	5.040	-507.51074	232.78436	1770.86230	-522.56000	47.59402	1484.50671	-519.28290	403.17209	1479.85022	-486.35968	224.85423	1276.01392	-640.88416	110.15211	1000.35443	-604.82605	332.57791	1006.91321	-824.11169	243.77167	1038.56970	-685.67975	57.33661	819.14111	-583.88611	105.66092	826.91162	-636.19012	63.80341	714.38416	-613.44037	89.13110	592.53247	-569.73889	191.98837	560.62079	-637.16058	93.13229	528.60370	-554.71234	131.90179	512.40948	-654.73328	88.90438	481.14816	-693.93402	138.24608	211.49290	-626.49243	73.11053	163.86368	-579.49664	50.79688	160.53304	-504.23312	91.22729	161.43350	-542.76477	142.18701	165.69003	-640.26074	210.02663	215.67543	-604.35101	183.74464	170.50331	-728.67383	206.80441	170.84293	-654.56500	429.95432	847.09082	-561.56219	370.51532	830.31824	-626.93488	420.27151	733.00433	-584.93817	399.23676	602.69568	-566.12408	289.14481	564.08710	-595.81445	401.56274	553.84644	-535.11322	348.44717	532.10938	-657.77356	403.89517	496.96362	-673.08966	402.97675	215.63702	-587.45782	459.27402	166.27850	-551.12628	470.79947	161.02919	-489.92178	427.66132	167.68431	-525.74915	383.95316	175.76353	-637.64258	314.61313	202.29538	-592.09729	339.02310	166.68860	-731.44214	332.09485	162.86041	-443.81641	448.59149	146.80765	-450.23730	75.05887	143.26927	-806.37115	82.49637	141.04616	-799.99481	456.35663	144.70570	
